<mxfile host="app.diagrams.net" modified="2024-04-22T06:40:58.849Z" agent="Mozilla/5.0 (Macintosh; Intel Mac OS X 10_15_7) AppleWebKit/605.1.15 (KHTML, like Gecko) Version/17.0 Safari/605.1.15" version="24.2.7" etag="rwshA4Sla1MML3TYazMW" type="github">
  <diagram name="Seite-1" id="BVI510uuwYHu8kqmtEov">
    <mxGraphModel>
      <root>
        <mxCell id="0" />
        <mxCell id="1" parent="0" />
      </root>
    </mxGraphModel>
  </diagram>
</mxfile>
